<svg xmlns="http://www.w3.org/2000/svg" viewBox="0 0 200 200" fill="none" stroke="currentColor" stroke-width="2.32" stroke-linecap="round" stroke-linejoin="round">
  <rect x="35" y="115" width="130" height="35" rx="6" stroke-width="2.03" opacity="0.55"></rect>
  <rect x="30" y="80" width="140" height="35" rx="6" stroke-width="2.175" opacity="0.8"></rect>
  <rect x="25" y="40" width="150" height="38" rx="7" stroke-width="2.61"></rect>
  <circle cx="38" cy="49" r="2.5" fill="currentColor" stroke="none"></circle>
  <line x1="46" y1="49" x2="80" y2="49" stroke-width="2.03"></line>
  <circle cx="148" cy="49" r="1.6" fill="currentColor" stroke="none" opacity="0.7"></circle>
  <circle cx="155" cy="49" r="1.6" fill="currentColor" stroke="none" opacity="0.7"></circle>
  <circle cx="162" cy="49" r="1.6" fill="currentColor" stroke="none" opacity="0.7"></circle>
  <line x1="38" y1="68" x2="160" y2="68" stroke-width="1.74" opacity="0.35"></line>
  <line x1="38" y1="68" x2="118" y2="68" stroke-width="2.61"></line>
  <line x1="40" y1="97" x2="80" y2="97" stroke-width="1.45" opacity="0.5"></line>
  <circle cx="35.5" cy="97" r="1.5" fill="currentColor" stroke="none" opacity="0.5"></circle>
  <line x1="45" y1="132" x2="75" y2="132" stroke-width="1.45" opacity="0.35"></line>
  <line x1="50" y1="165" x2="50" y2="172" stroke-width="1.74" opacity="0.55"></line>
  <line x1="100" y1="165" x2="100" y2="175" stroke-width="1.74" opacity="0.55"></line>
  <line x1="150" y1="165" x2="150" y2="172" stroke-width="1.74" opacity="0.55"></line>
  <line x1="35" y1="170" x2="165" y2="170" stroke-width="1.16" stroke-dasharray="2 3" opacity="0.55"></line>
  <circle cx="100" cy="178" r="2" fill="currentColor" stroke="none" opacity="0.8"></circle>
</svg>
