<svg xmlns="http://www.w3.org/2000/svg" viewBox="0 0 200 200" fill="none" stroke="currentColor" stroke-width="2" stroke-linecap="round" stroke-linejoin="round">
  <path id="db-orbit-a" d="M 25 100 A 75 28 0 1 1 175 100 A 75 28 0 1 1 25 100"></path>
  <g transform="rotate(60 100 100)">
    <path id="db-orbit-b" d="M 25 100 A 75 28 0 1 1 175 100 A 75 28 0 1 1 25 100"></path>
  </g>
  <g transform="rotate(-60 100 100)">
    <path id="db-orbit-c" d="M 25 100 A 75 28 0 1 1 175 100 A 75 28 0 1 1 25 100"></path>
  </g>
  <circle cx="100" cy="100" r="9" fill="currentColor" stroke="none"></circle>
  <circle cx="100" cy="100" r="16" stroke-width="1" opacity="0.4"></circle>
  <g transform="rotate(-60 100 100)">
    <g>
      <circle r="2" fill="currentColor" stroke="none" opacity="0.7"></circle>
    </g>
  </g>
  <g>
    <g>
      <circle r="11" class="chip-bg" stroke="currentColor" stroke-width="1.4"></circle>
      <text x="0" y="0.5" text-anchor="middle" dominant-baseline="central" font-family="ui-monospace, 'JetBrains Mono', 'SF Mono', Menlo, monospace" font-weight="600" font-size="13" fill="currentColor" stroke="none">d</text>
    </g>
  </g>
  <g transform="rotate(60 100 100)">
    <g>
      <g>
        <circle r="11" class="chip-bg" stroke="currentColor" stroke-width="1.4"></circle>
        <text x="0" y="0.5" text-anchor="middle" dominant-baseline="central" font-family="ui-monospace, 'JetBrains Mono', 'SF Mono', Menlo, monospace" font-weight="600" font-size="13" fill="currentColor" stroke="none" transform="rotate(-60)">b</text>
      </g>
    </g>
  </g>
</svg>
